<svg width="173" height="36" viewBox="0 0 173 36" fill="none" xmlns="http://www.w3.org/2000/svg">
<path d="M31.0657 30.3529L30.8994 30.883L30.5516 31.9934C30.4142 32.4374 30.1386 32.8257 29.765 33.1016C29.3914 33.3775 28.9394 33.5264 28.4752 33.5267V33.5267L27.4644 32.5432L25.0576 30.2149L22.2855 27.523C21.9219 27.1728 21.4368 26.9771 20.9322 26.9771C20.4276 26.9771 19.9426 27.1728 19.579 27.523L16.8003 30.2105L14.3935 32.5388L13.3805 33.5223C12.9168 33.52 12.4657 33.3702 12.0925 33.0947C11.7193 32.8191 11.4433 32.4319 11.3041 31.9891L10.9672 30.883L10.8009 30.3529C11.0348 30.3464 11.2655 30.2967 11.4814 30.2062C11.6969 30.115 11.8936 29.9842 12.0612 29.8207L14.0303 27.9107L17.7192 24.3296C18.1368 23.9245 18.6956 23.6983 19.277 23.6988H22.8697C23.2775 23.6962 23.6701 23.8535 23.9636 24.1368L24.4603 24.6187L27.8472 27.9041L29.8164 29.8141C29.9832 29.9786 30.1801 30.1095 30.3962 30.1996C30.612 30.2901 30.8427 30.3399 31.0767 30.3463L31.0657 30.3529Z" fill="#0F2368"/>
<path d="M24.445 24.6187C23.2346 24.6182 22.0716 25.0895 21.2024 25.9329V25.9329L20.9333 26.1935L19.5855 27.5077L16.8003 30.2105L14.3935 32.5388L13.3805 33.5223C12.9168 33.52 12.4657 33.3702 12.0925 33.0947C11.7193 32.8191 11.4433 32.4319 11.3041 31.9891L10.9672 30.883L10.8009 30.3529C11.0348 30.3464 11.2655 30.2967 11.4814 30.2062C11.6969 30.115 11.8936 29.9842 12.0612 29.8207L14.0303 27.9107L17.7192 24.3296C18.1368 23.9245 18.6956 23.6983 19.277 23.6988H22.8697C23.2775 23.6962 23.6701 23.8535 23.9636 24.1368L24.445 24.6187Z" fill="#1371FF"/>
<path d="M16.9508 17.9602L15.3535 20.8733C15.1868 21.1769 14.9416 21.4301 14.6438 21.6066C14.3459 21.783 14.0062 21.8762 13.6601 21.8764H10.0324C9.44354 21.8765 8.86359 21.7321 8.34334 21.4559L2.69842 18.4552C2.6296 18.4204 2.55006 18.4136 2.47631 18.436C2.40256 18.4584 2.34028 18.5084 2.3024 18.5756C2.27664 18.6211 2.26308 18.6724 2.26302 18.7246C2.26527 18.7739 2.27962 18.8218 2.30481 18.8643C2.33 18.9067 2.36524 18.9422 2.40743 18.9677L4.96514 20.6017C7.21954 22.0448 8.89368 24.2373 9.69331 26.7937L10.8048 30.3529L10.9711 30.883L11.3168 31.9934C11.4559 32.4363 11.732 32.8235 12.1052 33.099C12.4784 33.3746 12.9294 33.5244 13.3931 33.5267C13.0896 33.8276 12.6804 33.9975 12.2532 33.9998H6.42888C6.01509 33.9995 5.61219 33.867 5.27885 33.6216C4.94552 33.3761 4.69917 33.0306 4.57569 32.6352L0.0400595 18.1201C-0.000333003 17.994 -0.0103596 17.8602 0.0107991 17.7296C0.0319578 17.5989 0.0837013 17.4751 0.1618 17.3683C0.239899 17.2615 0.342137 17.1747 0.460157 17.115C0.578177 17.0553 0.708629 17.0245 0.84085 17.0249H16.4103C16.5199 17.0243 16.6277 17.0527 16.7228 17.1072C16.8179 17.1618 16.8969 17.2405 16.9518 17.3355C17.0066 17.4304 17.0355 17.5383 17.0353 17.648C17.0351 17.7577 17.0059 17.8654 16.9508 17.9602Z" fill="#0F2368"/>
<path d="M41.8237 18.1201L37.288 32.6352C37.1642 33.0302 36.9176 33.3753 36.5843 33.6203C36.251 33.8653 35.8483 33.9975 35.4348 33.9976H29.6214C29.1892 33.9971 28.7747 33.8255 28.4684 33.5201C28.9326 33.5199 29.3846 33.3709 29.7582 33.095C30.1318 32.8192 30.4074 32.4309 30.5448 31.9869L30.8926 30.8764L31.0589 30.3464L32.0194 27.269C32.916 24.4001 34.7959 21.9403 37.3274 20.3235L39.4607 18.9612C39.503 18.9342 39.5378 18.897 39.5619 18.853C39.586 18.8089 39.5986 18.7595 39.5985 18.7093C39.5997 18.6573 39.5872 18.6059 39.5623 18.5602C39.5375 18.5146 39.5011 18.4762 39.4569 18.4489C39.4126 18.4217 39.362 18.4065 39.3101 18.4049C39.2582 18.4033 39.2067 18.4154 39.1609 18.4399L33.5182 21.4406C32.9978 21.7166 32.4179 21.861 31.8291 21.8611H28.2036C27.8575 21.8611 27.5177 21.768 27.2198 21.5916C26.9218 21.4151 26.6768 21.1617 26.5102 20.858L24.913 17.9602C24.8608 17.8655 24.8343 17.7587 24.8359 17.6506C24.8376 17.5424 24.8674 17.4366 24.9224 17.3435C24.9774 17.2504 25.0557 17.1732 25.1496 17.1197C25.2435 17.0661 25.3497 17.038 25.4578 17.0381H41.0229C41.1534 17.0387 41.282 17.0698 41.3985 17.1289C41.5149 17.188 41.616 17.2734 41.6938 17.3785C41.7715 17.4835 41.8237 17.6052 41.8462 17.7339C41.8688 17.8626 41.8611 17.9949 41.8237 18.1201V18.1201Z" fill="#1371FF"/>
<path d="M30.5632 12.8768H25.0736C24.9307 12.8768 24.7895 12.8451 24.6602 12.7842C24.5308 12.7232 24.4165 12.6344 24.3254 12.5242L21.7589 9.40517C21.6679 9.29426 21.5554 9.20285 21.4283 9.13639C21.3012 9.06992 21.1621 9.02977 21.0191 9.01832C20.8762 9.00688 20.7324 9.02437 20.5964 9.06976C20.4603 9.11515 20.3348 9.1875 20.2273 9.28251C20.1847 9.32012 20.1452 9.36114 20.1092 9.40517L17.5427 12.5242C17.4516 12.6344 17.3373 12.7232 17.2079 12.7842C17.0786 12.8451 16.9374 12.8768 16.7944 12.8768H11.3245C11.1439 12.8765 10.967 12.8249 10.8145 12.7279C10.662 12.6309 10.5402 12.4925 10.4631 12.3289C10.3861 12.1653 10.3571 11.9832 10.3795 11.8037C10.4018 11.6242 10.4746 11.4548 10.5894 11.3151L16.9673 3.55486L19.2165 0.819174C19.4198 0.571345 19.6738 0.370002 19.9614 0.228699C20.249 0.0873961 20.5635 0.00941305 20.8837 0L21.0128 0C21.3327 0.00958136 21.6468 0.0876506 21.934 0.228953C22.2212 0.370255 22.4748 0.571511 22.6778 0.819174L22.8704 1.05354L24.9271 3.55486L26.3514 5.28739L31.2962 11.3151C31.4109 11.4546 31.4836 11.6239 31.5061 11.8032C31.5285 11.9824 31.4997 12.1644 31.4229 12.3279C31.3462 12.4915 31.2246 12.6298 31.0725 12.727C30.9203 12.8241 30.7437 12.8761 30.5632 12.8768V12.8768Z" fill="#1371FF"/>
<path d="M26.3427 5.28739C25.4563 5.28903 24.5811 5.48614 23.7794 5.8647C22.9777 6.24326 22.2692 6.79398 21.7042 7.4777L20.9537 8.38886L20.2295 9.26499C20.1869 9.3026 20.1474 9.34362 20.1114 9.38764L17.5427 12.5242C17.4516 12.6344 17.3373 12.7232 17.2079 12.7842C17.0786 12.8451 16.9374 12.8768 16.7944 12.8768H11.3245C11.1439 12.8765 10.967 12.8249 10.8145 12.7279C10.662 12.6309 10.5402 12.4925 10.4631 12.3289C10.3861 12.1653 10.3571 11.9832 10.3795 11.8037C10.4018 11.6242 10.4746 11.4548 10.5894 11.3151L16.9673 3.55486L19.2165 0.819174C19.4198 0.571345 19.6738 0.370002 19.9614 0.228699C20.249 0.0873961 20.5635 0.00941305 20.8837 0L21.0128 0C21.3327 0.00958136 21.6468 0.0876506 21.934 0.228953C22.2212 0.370255 22.4748 0.571511 22.6778 0.819174L22.8704 1.05354L24.9271 3.55486L26.3427 5.28739Z" fill="#0F2368"/>
<path d="M26.3413 5.28771L24.917 3.55518L26.3413 5.28771Z" fill="#7D7D7D"/>
<path d="M49.7969 3.72266H54.2402C56.1413 3.72266 57.5801 3.98958 58.5566 4.52344C59.5332 5.05729 60.0215 5.99479 60.0215 7.33594C60.0215 7.8763 59.9336 8.36458 59.7578 8.80078C59.5885 9.23698 59.3411 9.59505 59.0156 9.875C58.6901 10.1549 58.293 10.3372 57.8242 10.4219V10.5195C58.2995 10.6172 58.7292 10.7865 59.1133 11.0273C59.4974 11.2617 59.8034 11.6068 60.0312 12.0625C60.2656 12.5117 60.3828 13.1107 60.3828 13.8594C60.3828 14.7253 60.1712 15.4674 59.748 16.0859C59.3249 16.7044 58.7194 17.1797 57.9316 17.5117C57.1504 17.8372 56.2194 18 55.1387 18H49.7969V3.72266ZM52.8242 9.37695H54.582C55.4609 9.37695 56.0697 9.24023 56.4082 8.9668C56.7467 8.68685 56.916 8.27669 56.916 7.73633C56.916 7.18945 56.7142 6.79883 56.3105 6.56445C55.9134 6.32357 55.2819 6.20312 54.416 6.20312H52.8242V9.37695ZM52.8242 11.7793V15.5H54.7969C55.7083 15.5 56.3431 15.3242 56.7012 14.9727C57.0592 14.6211 57.2383 14.1491 57.2383 13.5566C57.2383 13.2051 57.1602 12.8958 57.0039 12.6289C56.8477 12.362 56.584 12.1536 56.2129 12.0039C55.8483 11.8542 55.3438 11.7793 54.6992 11.7793H52.8242ZM76.8934 10.8418C76.8934 11.9421 76.7566 12.9447 76.4832 13.8496C76.2098 14.748 75.7931 15.5228 75.2332 16.1738C74.6798 16.8249 73.9767 17.3262 73.1238 17.6777C72.271 18.0228 71.2618 18.1953 70.0965 18.1953C68.9311 18.1953 67.922 18.0228 67.0691 17.6777C66.2163 17.3262 65.5099 16.8249 64.95 16.1738C64.3966 15.5228 63.9832 14.7448 63.7098 13.8398C63.4363 12.9349 63.2996 11.929 63.2996 10.8223C63.2996 9.3444 63.5405 8.05859 64.0223 6.96484C64.5105 5.86458 65.2592 5.01172 66.2684 4.40625C67.2775 3.80078 68.56 3.49805 70.116 3.49805C71.6655 3.49805 72.9383 3.80078 73.9344 4.40625C74.937 5.01172 75.6792 5.86458 76.1609 6.96484C76.6492 8.0651 76.8934 9.35742 76.8934 10.8418ZM66.4734 10.8418C66.4734 11.8379 66.5971 12.6973 66.8445 13.4199C67.0984 14.1361 67.4923 14.6895 68.0262 15.0801C68.56 15.4642 69.2501 15.6562 70.0965 15.6562C70.9559 15.6562 71.6525 15.4642 72.1863 15.0801C72.7202 14.6895 73.1076 14.1361 73.3484 13.4199C73.5958 12.6973 73.7195 11.8379 73.7195 10.8418C73.7195 9.3444 73.4396 8.16602 72.8797 7.30664C72.3198 6.44727 71.3986 6.01758 70.116 6.01758C69.2632 6.01758 68.5665 6.21289 68.0262 6.60352C67.4923 6.98763 67.0984 7.54102 66.8445 8.26367C66.5971 8.97982 66.4734 9.83919 66.4734 10.8418ZM88.9801 14.0352C88.9801 14.8815 88.775 15.6172 88.3648 16.2422C87.9547 16.8672 87.3557 17.349 86.568 17.6875C85.7867 18.026 84.8362 18.1953 83.7164 18.1953C83.2216 18.1953 82.7366 18.1628 82.2613 18.0977C81.7926 18.0326 81.3401 17.9382 80.9039 17.8145C80.4742 17.6842 80.0641 17.5247 79.6734 17.3359V14.5234C80.3505 14.8229 81.0536 15.0931 81.7828 15.334C82.512 15.5749 83.2346 15.6953 83.9508 15.6953C84.4456 15.6953 84.8427 15.6302 85.1422 15.5C85.4482 15.3698 85.6695 15.1908 85.8062 14.9629C85.943 14.735 86.0113 14.4746 86.0113 14.1816C86.0113 13.8236 85.8909 13.5176 85.65 13.2637C85.4091 13.0098 85.0771 12.7721 84.6539 12.5508C84.2372 12.3294 83.7652 12.0918 83.2379 11.8379C82.9059 11.6816 82.5445 11.4928 82.1539 11.2715C81.7633 11.0436 81.3922 10.7669 81.0406 10.4414C80.6891 10.1159 80.3993 9.72201 80.1715 9.25977C79.9501 8.79102 79.8395 8.23112 79.8395 7.58008C79.8395 6.72721 80.0348 5.99805 80.4254 5.39258C80.816 4.78711 81.3727 4.32487 82.0953 4.00586C82.8245 3.68034 83.6839 3.51758 84.6734 3.51758C85.4156 3.51758 86.122 3.60547 86.7926 3.78125C87.4697 3.95052 88.176 4.19792 88.9117 4.52344L87.9352 6.87695C87.2776 6.61003 86.6884 6.40495 86.1676 6.26172C85.6467 6.11198 85.1161 6.03711 84.5758 6.03711C84.1982 6.03711 83.8759 6.09896 83.609 6.22266C83.3421 6.33984 83.1402 6.50911 83.0035 6.73047C82.8668 6.94531 82.7984 7.19596 82.7984 7.48242C82.7984 7.82096 82.8961 8.10742 83.0914 8.3418C83.2932 8.56966 83.5927 8.79102 83.9898 9.00586C84.3935 9.2207 84.8948 9.47135 85.4937 9.75781C86.2229 10.1029 86.8447 10.4642 87.359 10.8418C87.8798 11.2129 88.2802 11.6523 88.5602 12.1602C88.8401 12.6615 88.9801 13.2865 88.9801 14.0352ZM100.696 14.0352C100.696 14.8815 100.491 15.6172 100.08 16.2422C99.6703 16.8672 99.0714 17.349 98.2836 17.6875C97.5023 18.026 96.5518 18.1953 95.432 18.1953C94.9372 18.1953 94.4522 18.1628 93.977 18.0977C93.5082 18.0326 93.0557 17.9382 92.6195 17.8145C92.1898 17.6842 91.7797 17.5247 91.3891 17.3359V14.5234C92.0661 14.8229 92.7693 15.0931 93.4984 15.334C94.2276 15.5749 94.9503 15.6953 95.6664 15.6953C96.1612 15.6953 96.5583 15.6302 96.8578 15.5C97.1638 15.3698 97.3852 15.1908 97.5219 14.9629C97.6586 14.735 97.727 14.4746 97.727 14.1816C97.727 13.8236 97.6065 13.5176 97.3656 13.2637C97.1247 13.0098 96.7927 12.7721 96.3695 12.5508C95.9529 12.3294 95.4809 12.0918 94.9535 11.8379C94.6215 11.6816 94.2602 11.4928 93.8695 11.2715C93.4789 11.0436 93.1078 10.7669 92.7562 10.4414C92.4047 10.1159 92.115 9.72201 91.8871 9.25977C91.6658 8.79102 91.5551 8.23112 91.5551 7.58008C91.5551 6.72721 91.7504 5.99805 92.141 5.39258C92.5316 4.78711 93.0883 4.32487 93.8109 4.00586C94.5401 3.68034 95.3995 3.51758 96.3891 3.51758C97.1312 3.51758 97.8376 3.60547 98.5082 3.78125C99.1853 3.95052 99.8917 4.19792 100.627 4.52344L99.6508 6.87695C98.9932 6.61003 98.404 6.40495 97.8832 6.26172C97.3624 6.11198 96.8318 6.03711 96.2914 6.03711C95.9138 6.03711 95.5915 6.09896 95.3246 6.22266C95.0577 6.33984 94.8559 6.50911 94.7191 6.73047C94.5824 6.94531 94.5141 7.19596 94.5141 7.48242C94.5141 7.82096 94.6117 8.10742 94.807 8.3418C95.0089 8.56966 95.3083 8.79102 95.7055 9.00586C96.1091 9.2207 96.6104 9.47135 97.2094 9.75781C97.9385 10.1029 98.5603 10.4642 99.0746 10.8418C99.5954 11.2129 99.9958 11.6523 100.276 12.1602C100.556 12.6615 100.696 13.2865 100.696 14.0352ZM110.048 6.03711C109.469 6.03711 108.954 6.15104 108.505 6.37891C108.062 6.60026 107.688 6.92253 107.382 7.3457C107.083 7.76888 106.855 8.27995 106.698 8.87891C106.542 9.47786 106.464 10.1517 106.464 10.9004C106.464 11.9095 106.588 12.7721 106.835 13.4883C107.089 14.1979 107.48 14.7415 108.007 15.1191C108.534 15.4902 109.215 15.6758 110.048 15.6758C110.627 15.6758 111.207 15.6107 111.786 15.4805C112.372 15.3503 113.007 15.1647 113.691 14.9238V17.4629C113.059 17.7233 112.437 17.9089 111.825 18.0195C111.213 18.1367 110.527 18.1953 109.765 18.1953C108.293 18.1953 107.083 17.8926 106.132 17.2871C105.188 16.6751 104.488 15.8223 104.032 14.7285C103.577 13.6283 103.349 12.3457 103.349 10.8809C103.349 9.80013 103.495 8.81055 103.788 7.91211C104.081 7.01367 104.511 6.23568 105.077 5.57812C105.644 4.92057 106.344 4.41276 107.177 4.05469C108.01 3.69661 108.967 3.51758 110.048 3.51758C110.758 3.51758 111.467 3.60872 112.177 3.79102C112.893 3.9668 113.577 4.21094 114.228 4.52344L113.251 6.98438C112.717 6.73047 112.18 6.50911 111.64 6.32031C111.099 6.13151 110.569 6.03711 110.048 6.03711ZM130.396 10.8418C130.396 11.9421 130.26 12.9447 129.986 13.8496C129.713 14.748 129.296 15.5228 128.736 16.1738C128.183 16.8249 127.48 17.3262 126.627 17.6777C125.774 18.0228 124.765 18.1953 123.6 18.1953C122.434 18.1953 121.425 18.0228 120.572 17.6777C119.719 17.3262 119.013 16.8249 118.453 16.1738C117.9 15.5228 117.486 14.7448 117.213 13.8398C116.939 12.9349 116.803 11.929 116.803 10.8223C116.803 9.3444 117.044 8.05859 117.525 6.96484C118.014 5.86458 118.762 5.01172 119.771 4.40625C120.781 3.80078 122.063 3.49805 123.619 3.49805C125.169 3.49805 126.441 3.80078 127.438 4.40625C128.44 5.01172 129.182 5.86458 129.664 6.96484C130.152 8.0651 130.396 9.35742 130.396 10.8418ZM119.977 10.8418C119.977 11.8379 120.1 12.6973 120.348 13.4199C120.602 14.1361 120.995 14.6895 121.529 15.0801C122.063 15.4642 122.753 15.6562 123.6 15.6562C124.459 15.6562 125.156 15.4642 125.689 15.0801C126.223 14.6895 126.611 14.1361 126.852 13.4199C127.099 12.6973 127.223 11.8379 127.223 10.8418C127.223 9.3444 126.943 8.16602 126.383 7.30664C125.823 6.44727 124.902 6.01758 123.619 6.01758C122.766 6.01758 122.07 6.21289 121.529 6.60352C120.995 6.98763 120.602 7.54102 120.348 8.26367C120.1 8.97982 119.977 9.83919 119.977 10.8418ZM145.901 10.7246C145.901 12.3327 145.592 13.6771 144.973 14.7578C144.361 15.832 143.473 16.6426 142.307 17.1895C141.142 17.7298 139.739 18 138.098 18H134.055V3.72266H138.538C140.035 3.72266 141.334 3.98958 142.434 4.52344C143.535 5.05078 144.387 5.83529 144.993 6.87695C145.598 7.91211 145.901 9.19466 145.901 10.7246ZM142.757 10.8027C142.757 9.74805 142.6 8.88216 142.288 8.20508C141.982 7.52148 141.526 7.01693 140.921 6.69141C140.322 6.36589 139.58 6.20312 138.694 6.20312H137.083V15.5H138.382C139.86 15.5 140.957 15.1061 141.673 14.3184C142.395 13.5306 142.757 12.3587 142.757 10.8027ZM157.783 18H149.56V3.72266H157.783V6.20312H152.588V9.33789H157.421V11.8184H152.588V15.5H157.783V18ZM165.631 3.72266C166.927 3.72266 167.995 3.87891 168.834 4.19141C169.681 4.50391 170.309 4.97591 170.719 5.60742C171.129 6.23893 171.334 7.03646 171.334 8C171.334 8.65104 171.211 9.2207 170.963 9.70898C170.716 10.1973 170.39 10.6107 169.987 10.9492C169.583 11.2878 169.147 11.5645 168.678 11.7793L172.877 18H169.518L166.11 12.5215H164.498V18H161.471V3.72266H165.631ZM165.416 6.20312H164.498V10.0605H165.475C166.478 10.0605 167.194 9.89453 167.623 9.5625C168.06 9.22396 168.278 8.72917 168.278 8.07812C168.278 7.40104 168.043 6.91927 167.575 6.63281C167.112 6.34635 166.393 6.20312 165.416 6.20312Z" fill="#0F2368"/>
<path d="M56.376 35L55.6514 32.6211H52.0078L51.2832 35H49L52.5273 24.9648H55.1182L58.6592 35H56.376ZM55.1455 30.8438L54.4209 28.5195C54.3753 28.3646 54.3138 28.1663 54.2363 27.9248C54.1634 27.6787 54.0882 27.4303 54.0107 27.1797C53.9378 26.9245 53.8786 26.7035 53.833 26.5166C53.7874 26.7035 53.7236 26.9359 53.6416 27.2139C53.5641 27.4873 53.4889 27.7471 53.416 27.9932C53.3431 28.2393 53.2907 28.4147 53.2588 28.5195L52.541 30.8438H55.1455ZM66.5489 26.626C66.1433 26.626 65.7833 26.7057 65.4689 26.8652C65.159 27.0202 64.8969 27.2458 64.6827 27.542C64.4731 27.8382 64.3136 28.196 64.2042 28.6152C64.0948 29.0345 64.0402 29.5062 64.0402 30.0303C64.0402 30.7367 64.1267 31.3405 64.2999 31.8418C64.4777 32.3385 64.7511 32.7191 65.1202 32.9834C65.4894 33.2432 65.9656 33.373 66.5489 33.373C66.9545 33.373 67.3601 33.3275 67.7657 33.2363C68.1759 33.1452 68.6202 33.0153 69.0988 32.8467V34.624C68.6567 34.8063 68.2215 34.9362 67.7931 35.0137C67.3647 35.0957 66.8839 35.1367 66.3507 35.1367C65.3208 35.1367 64.4731 34.9248 63.8077 34.501C63.1469 34.0726 62.657 33.4756 62.338 32.71C62.019 31.9398 61.8595 31.042 61.8595 30.0166C61.8595 29.2601 61.962 28.5674 62.1671 27.9385C62.3722 27.3096 62.673 26.765 63.0695 26.3047C63.4659 25.8444 63.9558 25.4889 64.5392 25.2383C65.1225 24.9876 65.7924 24.8623 66.5489 24.8623C67.0457 24.8623 67.5424 24.9261 68.0392 25.0537C68.5405 25.1768 69.019 25.3477 69.4747 25.5664L68.7911 27.2891C68.4174 27.1113 68.0415 26.9564 67.6632 26.8242C67.2849 26.6921 66.9135 26.626 66.5489 26.626ZM79.7297 35L79.0051 32.6211H75.3616L74.637 35H72.3538L75.8811 24.9648H78.4719L82.0129 35H79.7297ZM78.4993 30.8438L77.7746 28.5195C77.7291 28.3646 77.6676 28.1663 77.5901 27.9248C77.5172 27.6787 77.442 27.4303 77.3645 27.1797C77.2916 26.9245 77.2323 26.7035 77.1868 26.5166C77.1412 26.7035 77.0774 26.9359 76.9954 27.2139C76.9179 27.4873 76.8427 27.7471 76.7698 27.9932C76.6968 28.2393 76.6444 28.4147 76.6125 28.5195L75.8948 30.8438H78.4993ZM93.9496 29.9072C93.9496 31.0329 93.7331 31.974 93.3002 32.7305C92.8718 33.4824 92.2497 34.0498 91.4339 34.4326C90.6182 34.8109 89.6361 35 88.4877 35H85.6576V25.0059H88.7953C89.8434 25.0059 90.7526 25.1927 91.5228 25.5664C92.293 25.9355 92.89 26.4847 93.3138 27.2139C93.7377 27.9385 93.9496 28.8363 93.9496 29.9072ZM91.7484 29.9619C91.7484 29.2236 91.639 28.6175 91.4203 28.1436C91.2061 27.665 90.8871 27.3118 90.4632 27.084C90.044 26.8561 89.5244 26.7422 88.9046 26.7422H87.7767V33.25H88.6859C89.7204 33.25 90.4883 32.9743 90.9896 32.4229C91.4955 31.8714 91.7484 31.0511 91.7484 29.9619ZM104.157 35H98.4009V25.0059H104.157V26.7422H100.52V28.9365H103.904V30.6729H100.52V33.25H104.157V35ZM112.86 35L110.454 27.1592H110.392C110.401 27.346 110.415 27.6286 110.433 28.0068C110.456 28.3805 110.476 28.7793 110.495 29.2031C110.513 29.627 110.522 30.0098 110.522 30.3516V35H108.629V25.0059H111.513L113.879 32.6484H113.92L116.428 25.0059H119.313V35H117.338V30.2695C117.338 29.9551 117.342 29.5928 117.351 29.1826C117.365 28.7725 117.381 28.3828 117.399 28.0137C117.417 27.64 117.431 27.3597 117.44 27.1729H117.379L114.801 35H112.86ZM127.326 29.1211L129.411 25.0059H131.694L128.379 31.1104V35H126.273V31.1787L122.958 25.0059H125.255L127.326 29.1211Z" fill="#1371FF"/>
</svg>
